<svg width="704" height="1308" viewBox="0 0 704 1308" fill="none" xmlns="http://www.w3.org/2000/svg">
<path d="M268.105 1474.7C311.206 1457.31 360.469 1458.73 406.745 1460.21C457.779 1461.81 509.811 1464.37 559.424 1452.72C602.512 1442.54 642.902 1420.8 670.109 1384.94C696.679 1349.93 710.502 1305.89 699.979 1260.26C687.15 1204.72 641.541 1165.88 599.457 1132.23C554.379 1096.28 509.353 1060.41 464.276 1024.46C373.513 952.07 282.751 879.682 191.988 807.294C159.794 781.592 122.414 753.062 102.211 720.4C92.7206 705.138 88.1519 694.394 88.3094 678.825C88.4771 666.795 96.6672 652.196 108.639 644.419C144.773 621.08 194.062 626.273 236.508 627.1C284.149 628.033 331.952 626.512 375.248 606.53C412.648 589.322 445.113 557.207 456.093 515.612C468.992 467.013 447.953 418.995 417.191 380.544C384.921 340.234 341.747 308.984 302.667 276.106C258.887 239.293 215.157 202.57 171.376 165.758C130.183 131.132 87.6599 97.5015 49.1561 59.5685C16.8441 27.7908 -15.2801 -8.93862 -30.0152 -52.7555C-57.5111 -134.191 -14.1388 -203.724 35.6477 -260.258C48.8636 -275.244 62.6885 -289.75 76.6657 -303.989C102.989 -330.827 60.1489 -374.793 33.7419 -347.907C-21.5107 -291.563 -82.1693 -226.107 -95.0859 -142.523C-102.621 -93.9139 -93.6752 -45.375 -70.739 -0.684739C-47.2766 45.1232 -11.1478 84.1754 26.1985 118.515C66.0656 155.316 108.522 189.221 149.952 224.066C193.733 260.878 237.463 297.601 281.243 334.414C316.839 364.317 359.133 394.416 384.348 433.906C395.109 450.806 401.888 467.379 400.663 487.338C399.808 500.705 392.344 515.599 383.028 525.878C358.646 552.79 323.404 563.803 284.442 565.951C235.327 568.694 185.273 561.575 136.662 569.702C90.3954 577.436 45.1426 603.379 32.3115 652.293C21.0316 695.123 41.026 737.593 67.3558 771.603C95.7344 808.225 133.481 835.247 169.14 863.696C214.217 899.65 259.244 935.515 304.321 971.47C394.053 1043.03 484.642 1113.74 573.618 1186.32C592.86 1202.05 613.472 1219 627.534 1239.92C640.054 1258.53 645.791 1276.41 644.296 1296.29C643.922 1301.11 641.874 1310.43 639.314 1317.68C640.318 1314.75 638.511 1319.79 638.427 1319.84C637.572 1321.87 636.633 1323.94 635.644 1325.92C633.128 1330.9 630.426 1335.75 627.352 1340.34C619.643 1352.07 604.435 1366.3 592.698 1373.71C554.592 1397.7 507.115 1401.16 462.563 1400.94C411.904 1400.79 361.267 1396.36 310.98 1402.14C285.314 1405.09 261.243 1411.62 237.502 1421.27C222.877 1427.13 220.023 1449.32 227.5 1462.42C236.689 1478.33 253.395 1480.61 268.105 1474.7Z" fill="#FA2A2A"/>
</svg>
