<svg width="841" height="1221" viewBox="0 0 841 1221" fill="none" xmlns="http://www.w3.org/2000/svg">
<path d="M33.5264 -62.0076C86.4343 -66.7496 134.776 -86.1841 180.11 -104.53C230.122 -124.742 280.579 -145.965 336.717 -156.926C385.504 -166.41 438.189 -167.265 485.751 -153.894C532.198 -140.834 571.072 -117.046 586.554 -83.0746C605.378 -41.7179 581.987 0.960246 559.153 38.8964C534.648 79.4757 510.144 119.977 485.639 160.557C436.296 242.259 386.952 323.962 337.608 405.665C320.121 434.661 299.069 467.466 297.509 496.54C296.73 510.145 298.289 518.929 307.311 529.113C314.329 536.964 330.814 543.494 347.187 544.116C396.531 545.904 442.756 523.982 484.636 507.501C531.641 489 580.205 472.053 634.784 468.944C681.9 466.223 732.58 475.162 767.221 498.406C807.765 525.537 814.114 565.028 805.315 601.876C796.07 640.511 770.785 677.281 750.513 713.585C727.79 754.242 705.068 794.821 682.345 835.478C660.959 873.725 637.68 911.817 620.861 951.23C606.715 984.269 595.576 1020.5 605.824 1054.86C624.759 1118.76 707.63 1148.22 789.498 1166.72C811.218 1171.62 833.272 1175.97 855.327 1180.09C896.873 1187.87 879.163 1232.88 837.505 1225.1C750.291 1208.78 652.494 1188.49 592.012 1138.35C556.814 1109.19 538.101 1073.9 535.539 1035.89C532.866 996.94 546.678 957.683 564.389 921.068C583.213 881.888 606.269 843.641 627.767 805.161C650.489 764.504 673.212 723.924 695.934 683.267C714.424 650.229 739.486 614.547 742.159 579.098C743.273 563.939 740.6 550.491 728.013 537.819C719.548 529.346 703.62 522.35 688.472 519.085C648.819 510.533 607.383 516.519 567.285 529.735C516.716 546.371 470.825 569.847 417.694 582.752C367.126 595.035 307.2 594.957 266.545 567.593C230.901 543.65 226.669 508.201 233.574 475.94C241.037 441.191 263.314 409.241 282.695 377.135C307.2 336.556 331.705 296.054 356.21 255.475C404.996 174.705 455.12 94.1682 502.57 13.0097C512.817 -4.55911 523.733 -23.4494 525.849 -42.4953C527.743 -59.4422 523.287 -73.3573 510.478 -85.8731C507.359 -88.9049 500.008 -94.2688 493.325 -98.078C495.998 -96.5232 491.32 -99.1663 491.208 -99.1663C489.204 -100.177 487.087 -101.188 484.971 -102.12C479.624 -104.453 474.167 -106.629 468.486 -108.495C454.117 -113.315 430.838 -116.968 414.91 -117.435C363.227 -118.912 313.883 -103.364 269.552 -86.4951C219.094 -67.3715 171.088 -45.4494 117.623 -30.3682C90.3334 -22.6721 62.5985 -17.9301 33.4156 -15.3647C15.4825 -13.7322 -5.97715e-06 -27.2587 -5.47764e-06 -38.6862C0.11138 -52.6013 15.482 -60.3751 33.5264 -62.0076Z" fill="#767676"/>
<path d="M33.5264 -62.0076C86.4343 -66.7496 134.776 -86.1841 180.11 -104.53C230.122 -124.742 280.579 -145.965 336.717 -156.926C385.504 -166.41 438.189 -167.265 485.751 -153.894C532.198 -140.834 571.072 -117.046 586.554 -83.0746C605.378 -41.7179 581.987 0.960246 559.153 38.8964C534.648 79.4757 510.144 119.977 485.639 160.557C436.296 242.259 386.952 323.962 337.608 405.665C320.121 434.661 299.069 467.466 297.509 496.54C296.73 510.145 298.289 518.929 307.311 529.113C314.329 536.964 330.814 543.494 347.187 544.116C396.531 545.904 442.756 523.982 484.636 507.501C531.641 489 580.205 472.053 634.784 468.944C681.9 466.223 732.58 475.162 767.221 498.406C807.765 525.537 814.114 565.028 805.315 601.876C796.07 640.511 770.785 677.281 750.513 713.585C727.79 754.242 705.068 794.821 682.345 835.478C660.959 873.725 637.68 911.817 620.861 951.23C606.715 984.269 595.576 1020.5 605.824 1054.86C624.759 1118.76 707.63 1148.22 789.498 1166.72C811.218 1171.62 833.272 1175.97 855.327 1180.09C896.873 1187.87 879.163 1232.88 837.505 1225.1C750.291 1208.78 652.494 1188.49 592.012 1138.35C556.814 1109.19 538.101 1073.9 535.539 1035.89C532.866 996.94 546.678 957.683 564.389 921.068C583.213 881.888 606.269 843.641 627.767 805.161C650.489 764.504 673.212 723.924 695.934 683.267C714.424 650.229 739.486 614.547 742.159 579.098C743.273 563.939 740.6 550.491 728.013 537.819C719.548 529.346 703.62 522.35 688.472 519.085C648.819 510.533 607.383 516.519 567.285 529.735C516.716 546.371 470.825 569.847 417.694 582.752C367.126 595.035 307.2 594.957 266.545 567.593C230.901 543.65 226.669 508.201 233.574 475.94C241.037 441.191 263.314 409.241 282.695 377.135C307.2 336.556 331.705 296.054 356.21 255.475C404.996 174.705 455.12 94.1682 502.57 13.0097C512.817 -4.55911 523.733 -23.4494 525.849 -42.4953C527.743 -59.4422 523.287 -73.3573 510.478 -85.8731C507.359 -88.9049 500.008 -94.2688 493.325 -98.078C495.998 -96.5232 491.32 -99.1663 491.208 -99.1663C489.204 -100.177 487.087 -101.188 484.971 -102.12C479.624 -104.453 474.167 -106.629 468.486 -108.495C454.117 -113.315 430.838 -116.968 414.91 -117.435C363.227 -118.912 313.883 -103.364 269.552 -86.4951C219.094 -67.3715 171.088 -45.4494 117.623 -30.3682C90.3334 -22.6721 62.5985 -17.9301 33.4156 -15.3647C15.4825 -13.7322 -5.97715e-06 -27.2587 -5.47764e-06 -38.6862C0.11138 -52.6013 15.482 -60.3751 33.5264 -62.0076Z" fill="url(#paint0_linear_1_1672)"/>
<path d="M33.5264 -62.0076C86.4343 -66.7496 134.776 -86.1841 180.11 -104.53C230.122 -124.742 280.579 -145.965 336.717 -156.926C385.504 -166.41 438.189 -167.265 485.751 -153.894C532.198 -140.834 571.072 -117.046 586.554 -83.0746C605.378 -41.7179 581.987 0.960246 559.153 38.8964C534.648 79.4757 510.144 119.977 485.639 160.557C436.296 242.259 386.952 323.962 337.608 405.665C320.121 434.661 299.069 467.466 297.509 496.54C296.73 510.145 298.289 518.929 307.311 529.113C314.329 536.964 330.814 543.494 347.187 544.116C396.531 545.904 442.756 523.982 484.636 507.501C531.641 489 580.205 472.053 634.784 468.944C681.9 466.223 732.58 475.162 767.221 498.406C807.765 525.537 814.114 565.028 805.315 601.876C796.07 640.511 770.785 677.281 750.513 713.585C727.79 754.242 705.068 794.821 682.345 835.478C660.959 873.725 637.68 911.817 620.861 951.23C606.715 984.269 595.576 1020.5 605.824 1054.86C624.759 1118.76 707.63 1148.22 789.498 1166.72C811.218 1171.62 833.272 1175.97 855.327 1180.09C896.873 1187.87 879.163 1232.88 837.505 1225.1C750.291 1208.78 652.494 1188.49 592.012 1138.35C556.814 1109.19 538.101 1073.9 535.539 1035.89C532.866 996.94 546.678 957.683 564.389 921.068C583.213 881.888 606.269 843.641 627.767 805.161C650.489 764.504 673.212 723.924 695.934 683.267C714.424 650.229 739.486 614.547 742.159 579.098C743.273 563.939 740.6 550.491 728.013 537.819C719.548 529.346 703.62 522.35 688.472 519.085C648.819 510.533 607.383 516.519 567.285 529.735C516.716 546.371 470.825 569.847 417.694 582.752C367.126 595.035 307.2 594.957 266.545 567.593C230.901 543.65 226.669 508.201 233.574 475.94C241.037 441.191 263.314 409.241 282.695 377.135C307.2 336.556 331.705 296.054 356.21 255.475C404.996 174.705 455.12 94.1682 502.57 13.0097C512.817 -4.55911 523.733 -23.4494 525.849 -42.4953C527.743 -59.4422 523.287 -73.3573 510.478 -85.8731C507.359 -88.9049 500.008 -94.2688 493.325 -98.078C495.998 -96.5232 491.32 -99.1663 491.208 -99.1663C489.204 -100.177 487.087 -101.188 484.971 -102.12C479.624 -104.453 474.167 -106.629 468.486 -108.495C454.117 -113.315 430.838 -116.968 414.91 -117.435C363.227 -118.912 313.883 -103.364 269.552 -86.4951C219.094 -67.3715 171.088 -45.4494 117.623 -30.3682C90.3334 -22.6721 62.5985 -17.9301 33.4156 -15.3647C15.4825 -13.7322 -5.97715e-06 -27.2587 -5.47764e-06 -38.6862C0.11138 -52.6013 15.482 -60.3751 33.5264 -62.0076Z" fill="#F6EAEA"/>
<defs>
<linearGradient id="paint0_linear_1_1672" x1="-3.03794e-05" y1="531" x2="390.578" y2="531" gradientUnits="userSpaceOnUse">
<stop stop-color="#F2B705"/>
<stop offset="1" stop-color="#F37306"/>
</linearGradient>
</defs>
</svg>
