<svg width="58" height="58" viewBox="0 0 58 58" fill="none" xmlns="http://www.w3.org/2000/svg">
<g clip-path="url(#clip0_1_3847)">
<g clip-path="url(#clip1_1_3847)">
<path d="M31.6151 28.3503C32.3151 27.6479 33.0184 26.9328 34.2512 26.9328C36.6115 26.9328 38.3176 32.5676 42.7826 27.7812C47.6562 31.7191 53.0182 28.3503 53.0182 28.3503V56.5085H42.7826M42.7826 27.7812C42.7826 38.9999 42.7826 56.5085 42.7826 56.5085M42.7826 56.5085H5.00391V26.9328C6.11139 28.4277 7.22601 29.2825 8.29423 29.6884M8.29423 29.6884C11.1755 30.7833 11.1565 26.9328 13.9448 26.9328C16.1833 26.9328 17.092 29.3089 18.8964 29.6884C20.7308 29.7448 21.6151 27.0876 24.0146 26.9328C26.7442 26.7565 26.5697 29.8565 29.2997 29.6884C30.3372 29.6246 30.9748 28.9929 31.6151 28.3503M49.2404 29.4564C50.6053 26.8208 50.2153 23.0394 49.8497 21.4782C47.9974 15.8539 43.9596 17.2762 42.1723 18.6903C40.5218 16.2257 37.0274 14.5934 34.2512 16.8721C31.298 19.2959 30.1527 23.4251 31.6151 28.3503M8.29423 29.6884C5.24763 20.4062 3.1071 7.52426 9.93693 2.31305C15.3665 -1.8298 18.3431 10.651 18.8964 18.6903M18.8964 29.6884C18.8964 25.48 18.8964 18.6903 18.8964 18.6903M18.8964 18.6903C18.8964 18.6903 21.1874 13.2842 24.0146 12.9933V9.23572M24.0146 9.23572H29.8641M24.0146 9.23572H22.796V5.1145H31.0828V9.23572H29.8641M29.8641 9.23572V12.9933C31.0421 12.8721 33.5688 13.4782 34.2512 16.8721M42.1723 18.6903C42.213 16.5893 43.3666 12.6781 47.6562 13.8418" stroke="#FF5E5E" stroke-width="0.983051"/>
</g>
</g>
<defs>
<clipPath id="clip0_1_3847">
<rect width="57.02" height="58" fill="white"/>
</clipPath>
<clipPath id="clip1_1_3847">
<rect width="57.02" height="58" fill="white"/>
</clipPath>
</defs>
</svg>
