<svg width="35" height="35" viewBox="0 0 35 35" fill="none" xmlns="http://www.w3.org/2000/svg">
<rect x="0.5" y="0.5" width="34" height="34" rx="17" stroke="white" stroke-opacity="0.1"/>
<g clip-path="url(#clip0_1_4221)">
<g clip-path="url(#clip1_1_4221)">
<g clip-path="url(#clip2_1_4221)">
<path d="M21.505 12.595C21.327 12.595 21.153 12.6478 21.005 12.7467C20.857 12.8456 20.7416 12.9861 20.6735 13.1506C20.6054 13.315 20.5876 13.496 20.6223 13.6706C20.657 13.8452 20.7427 14.0055 20.8686 14.1314C20.9945 14.2573 21.1548 14.343 21.3294 14.3777C21.504 14.4124 21.685 14.3946 21.8494 14.3265C22.0139 14.2584 22.1544 14.143 22.2533 13.995C22.3522 13.847 22.405 13.673 22.405 13.495C22.405 13.2563 22.3102 13.0274 22.1414 12.8586C21.9726 12.6898 21.7437 12.595 21.505 12.595ZM24.955 14.41C24.9404 13.7877 24.8239 13.172 24.61 12.5875C24.4193 12.0874 24.1225 11.6345 23.74 11.26C23.3686 10.8756 22.9147 10.5806 22.4125 10.3975C21.8295 10.1771 21.2131 10.0579 20.59 10.045C19.795 10 19.54 10 17.5 10C15.46 10 15.205 10 14.41 10.045C13.7869 10.0579 13.1705 10.1771 12.5875 10.3975C12.0863 10.5825 11.6327 10.8772 11.26 11.26C10.8756 11.6314 10.5806 12.0853 10.3975 12.5875C10.1771 13.1705 10.0579 13.7869 10.045 14.41C10 15.205 10 15.46 10 17.5C10 19.54 10 19.795 10.045 20.59C10.0579 21.2131 10.1771 21.8295 10.3975 22.4125C10.5806 22.9147 10.8756 23.3686 11.26 23.74C11.6327 24.1228 12.0863 24.4175 12.5875 24.6025C13.1705 24.8229 13.7869 24.9421 14.41 24.955C15.205 25 15.46 25 17.5 25C19.54 25 19.795 25 20.59 24.955C21.2131 24.9421 21.8295 24.8229 22.4125 24.6025C22.9147 24.4194 23.3686 24.1244 23.74 23.74C24.1242 23.3669 24.4213 22.9136 24.61 22.4125C24.8239 21.8279 24.9404 21.2123 24.955 20.59C24.955 19.795 25 19.54 25 17.5C25 15.46 25 15.205 24.955 14.41ZM23.605 20.5C23.5995 20.9761 23.5133 21.4478 23.35 21.895C23.2302 22.2214 23.0379 22.5163 22.7875 22.7575C22.5442 23.0054 22.2499 23.1973 21.925 23.32C21.4778 23.4833 21.0061 23.5695 20.53 23.575C19.78 23.6125 19.5025 23.62 17.53 23.62C15.5575 23.62 15.28 23.62 14.53 23.575C14.0357 23.5843 13.5435 23.5081 13.075 23.35C12.7643 23.2211 12.4835 23.0296 12.25 22.7875C12.0011 22.5466 11.8111 22.2514 11.695 21.925C11.5119 21.4714 11.4103 20.989 11.395 20.5C11.395 19.75 11.35 19.4725 11.35 17.5C11.35 15.5275 11.35 15.25 11.395 14.5C11.3984 14.0133 11.4872 13.531 11.6575 13.075C11.7895 12.7584 11.9922 12.4762 12.25 12.25C12.4779 11.9921 12.7595 11.7873 13.075 11.65C13.5322 11.485 14.014 11.3988 14.5 11.395C15.25 11.395 15.5275 11.35 17.5 11.35C19.4725 11.35 19.75 11.35 20.5 11.395C20.9761 11.4005 21.4478 11.4867 21.895 11.65C22.2358 11.7765 22.5417 11.9821 22.7875 12.25C23.0333 12.4804 23.2253 12.7621 23.35 13.075C23.5167 13.5317 23.603 14.0138 23.605 14.5C23.6425 15.25 23.65 15.5275 23.65 17.5C23.65 19.4725 23.6425 19.75 23.605 20.5ZM17.5 13.6525C16.7394 13.654 15.9962 13.8809 15.3645 14.3046C14.7328 14.7282 14.2408 15.3297 13.9507 16.0328C13.6607 16.736 13.5855 17.5094 13.7348 18.2552C13.8842 19.001 14.2512 19.6859 14.7896 20.2232C15.3279 20.7606 16.0135 21.1263 16.7596 21.2741C17.5058 21.422 18.279 21.3453 18.9816 21.0539C19.6842 20.7625 20.2847 20.2693 20.7071 19.6368C21.1295 19.0042 21.355 18.2606 21.355 17.5C21.356 16.9938 21.2569 16.4925 21.0634 16.0247C20.87 15.557 20.5859 15.1321 20.2277 14.7745C19.8694 14.417 19.444 14.1338 18.9759 13.9412C18.5077 13.7486 18.0062 13.6505 17.5 13.6525ZM17.5 19.9975C17.006 19.9975 16.5232 19.851 16.1125 19.5766C15.7018 19.3022 15.3816 18.9121 15.1926 18.4558C15.0036 17.9994 14.9541 17.4972 15.0505 17.0128C15.1469 16.5283 15.3847 16.0833 15.734 15.734C16.0833 15.3847 16.5283 15.1469 17.0128 15.0505C17.4972 14.9541 17.9994 15.0036 18.4558 15.1926C18.9121 15.3816 19.3022 15.7018 19.5766 16.1125C19.851 16.5232 19.9975 17.006 19.9975 17.5C19.9975 17.828 19.9329 18.1527 19.8074 18.4558C19.6819 18.7588 19.4979 19.0341 19.266 19.266C19.0341 19.4979 18.7588 19.6819 18.4558 19.8074C18.1527 19.9329 17.828 19.9975 17.5 19.9975Z" fill="white"/>
</g>
</g>
</g>
<defs>
<clipPath id="clip0_1_4221">
<rect width="15" height="15" fill="white" transform="translate(10 10)"/>
</clipPath>
<clipPath id="clip1_1_4221">
<rect width="15" height="15" fill="white" transform="translate(10 10)"/>
</clipPath>
<clipPath id="clip2_1_4221">
<rect width="15" height="15" fill="white" transform="translate(10 10)"/>
</clipPath>
</defs>
</svg>
