<svg width="66" height="42" viewBox="0 0 66 42" fill="none" xmlns="http://www.w3.org/2000/svg">
<rect x="0.5" y="0.5" width="65" height="41" rx="20.5" fill="#EEEEEE"/>
<rect x="0.5" y="0.5" width="65" height="41" rx="20.5" stroke="#EEEEEE"/>
<path d="M31.5 30C32.3284 30 33 29.3284 33 28.5C33 27.6716 32.3284 27 31.5 27C30.6716 27 30 27.6716 30 28.5C30 29.3284 30.6716 30 31.5 30Z" fill="#222222"/>
<path d="M38.5 30C39.3284 30 40 29.3284 40 28.5C40 27.6716 39.3284 27 38.5 27C37.6716 27 37 27.6716 37 28.5C37 29.3284 37.6716 30 38.5 30Z" fill="#222222"/>
<path d="M34 22H36V19.01H38.99V17.01H36V14.03H34V17.01H31.01V19.01H34V22Z" fill="#222222"/>
<path d="M31 26H39C39.2014 25.9994 39.398 25.938 39.564 25.8238C39.7299 25.7096 39.8575 25.5479 39.93 25.36L42.76 18H40.62L38.31 24H31.67L27.18 13.23C27.0278 12.8651 26.7708 12.5534 26.4415 12.3345C26.1122 12.1156 25.7254 11.9992 25.33 12H23V14H25.33L30.08 25.38C30.155 25.5626 30.2824 25.719 30.4461 25.8293C30.6099 25.9396 30.8026 25.999 31 26Z" fill="#222222"/>
</svg>
