<svg width="96" height="96" viewBox="0 0 96 96" fill="none" xmlns="http://www.w3.org/2000/svg">
<rect width="96" height="96" rx="48" fill="#FF2B2A"/>
<path d="M58 66.0006C54.6926 65.9976 51.4366 65.1802 48.52 63.6206L47.62 63.1206C41.4015 59.7772 36.3034 54.679 32.96 48.4606L32.46 47.5606C30.8596 44.6274 30.0143 41.3419 30 38.0005V36.6605C29.9992 35.5945 30.4239 34.5721 31.18 33.8205L34.56 30.4405C34.8883 30.1097 35.3516 29.9503 35.8139 30.0091C36.2762 30.0678 36.685 30.3381 36.92 30.7405L41.42 38.4605C41.8751 39.2463 41.7437 40.2401 41.1 40.8805L37.32 44.6606C37.0061 44.971 36.9329 45.4506 37.14 45.8406L37.84 47.1606C40.3541 51.8174 44.1786 55.635 48.84 58.1406L50.16 58.8606C50.55 59.0676 51.0296 58.9944 51.34 58.6806L55.12 54.9006C55.7604 54.257 56.7542 54.1256 57.54 54.5806L65.26 59.0806C65.6624 59.3156 65.9328 59.7244 65.9914 60.1866C66.0502 60.649 65.8908 61.1124 65.56 61.4406L62.18 64.8206C61.4284 65.5766 60.406 66.0014 59.34 66.0006H58Z" fill="white"/>
</svg>
