<svg width="96" height="96" viewBox="0 0 96 96" fill="none" xmlns="http://www.w3.org/2000/svg">
<rect width="96" height="96" rx="48" fill="#FF2B2A"/>
<path d="M48.0002 27.999C40.0123 27.999 33.5137 34.4976 33.5137 42.4854C33.5137 52.3986 46.4776 66.9516 47.0296 67.5662C47.548 68.1436 48.4532 68.1426 48.9708 67.5662C49.5226 66.9516 62.4866 52.3986 62.4866 42.4854C62.4864 34.4976 55.988 27.999 48.0002 27.999ZM48.0002 49.774C43.9812 49.774 40.7117 46.5044 40.7117 42.4854C40.7117 38.4665 43.9813 35.197 48.0002 35.197C52.019 35.197 55.2886 38.4666 55.2886 42.4855C55.2886 46.5044 52.019 49.774 48.0002 49.774Z" fill="white"/>
</svg>
