<svg width="426" height="217" viewBox="0 0 426 217" fill="none" xmlns="http://www.w3.org/2000/svg">
<rect width="426" height="217" rx="30" fill="white"/>
<path d="M53.6467 139V80.92H63.367V105.362H90.8743V80.92H100.554V139H90.8743V114.477H63.367V139H53.6467ZM131.101 140.21C126.745 140.21 122.94 139.229 119.687 137.266C116.433 135.303 113.906 132.6 112.104 129.159C110.329 125.69 109.442 121.71 109.442 117.22C109.442 112.649 110.356 108.642 112.185 105.201C114.013 101.759 116.554 99.07 119.808 97.134C123.061 95.198 126.826 94.23 131.101 94.23C135.484 94.23 139.302 95.2114 142.556 97.1743C145.809 99.1372 148.337 101.853 150.138 105.322C151.94 108.763 152.841 112.73 152.841 117.22C152.841 121.737 151.927 125.73 150.098 129.199C148.297 132.641 145.769 135.343 142.515 137.306C139.262 139.242 135.457 140.21 131.101 140.21ZM131.101 131.095C134.973 131.095 137.85 129.804 139.732 127.223C141.615 124.641 142.556 121.307 142.556 117.22C142.556 112.998 141.601 109.637 139.692 107.137C137.783 104.609 134.919 103.345 131.101 103.345C128.493 103.345 126.342 103.937 124.648 105.12C122.981 106.276 121.744 107.903 120.937 110C120.13 112.071 119.727 114.477 119.727 117.22C119.727 121.442 120.682 124.816 122.591 127.344C124.527 129.844 127.364 131.095 131.101 131.095ZM178.062 140.25C174.836 140.25 172.174 139.713 170.076 138.637C167.979 137.561 166.312 136.19 165.075 134.523C163.838 132.856 162.924 131.081 162.332 129.199C161.741 127.317 161.351 125.542 161.163 123.875C161.001 122.181 160.921 120.81 160.921 119.761V95.44H170.762V116.413C170.762 117.758 170.856 119.277 171.044 120.971C171.233 122.638 171.663 124.251 172.335 125.811C173.034 127.344 174.056 128.607 175.4 129.602C176.772 130.597 178.614 131.095 180.926 131.095C182.163 131.095 183.386 130.893 184.596 130.49C185.806 130.086 186.895 129.401 187.863 128.433C188.858 127.438 189.652 126.08 190.243 124.359C190.835 122.638 191.13 120.46 191.13 117.825L196.898 120.285C196.898 123.996 196.172 127.357 194.72 130.369C193.295 133.38 191.184 135.787 188.388 137.588C185.591 139.363 182.15 140.25 178.062 140.25ZM192.3 139V125.488H191.13V95.44H200.891V139H192.3ZM212.223 139V95.44H220.814V106.048L219.765 104.676C220.303 103.224 221.016 101.907 221.903 100.724C222.817 99.5137 223.906 98.5188 225.17 97.739C226.245 97.013 227.429 96.4483 228.719 96.045C230.037 95.6148 231.381 95.3593 232.753 95.2787C234.124 95.1711 235.455 95.2249 236.746 95.44V104.515C235.455 104.139 233.963 104.018 232.269 104.152C230.601 104.286 229.096 104.757 227.751 105.564C226.407 106.29 225.304 107.217 224.444 108.347C223.61 109.476 222.992 110.767 222.589 112.219C222.185 113.644 221.984 115.19 221.984 116.857V139H212.223ZM259.686 140.21C254.308 140.21 249.938 139 246.577 136.58C243.216 134.16 241.173 130.759 240.447 126.376L250.369 124.843C250.88 126.994 252.009 128.688 253.757 129.925C255.504 131.162 257.709 131.78 260.371 131.78C262.711 131.78 264.512 131.323 265.776 130.409C267.067 129.468 267.712 128.191 267.712 126.577C267.712 125.582 267.47 124.789 266.986 124.198C266.529 123.579 265.507 122.988 263.921 122.423C262.334 121.858 259.901 121.146 256.62 120.285C252.963 119.317 250.059 118.282 247.908 117.18C245.757 116.05 244.211 114.719 243.27 113.187C242.329 111.654 241.858 109.799 241.858 107.621C241.858 104.905 242.571 102.539 243.996 100.522C245.421 98.5053 247.411 96.9592 249.965 95.8837C252.52 94.7812 255.531 94.23 259 94.23C262.388 94.23 265.386 94.7543 267.994 95.803C270.629 96.8517 272.754 98.344 274.367 100.28C275.98 102.216 276.975 104.488 277.352 107.096L267.43 108.871C267.188 107.016 266.341 105.55 264.889 104.475C263.464 103.399 261.554 102.794 259.161 102.66C256.876 102.525 255.034 102.875 253.636 103.708C252.237 104.515 251.538 105.658 251.538 107.137C251.538 107.97 251.821 108.683 252.385 109.274C252.95 109.866 254.079 110.457 255.773 111.049C257.494 111.641 260.049 112.367 263.437 113.227C266.905 114.114 269.675 115.136 271.745 116.292C273.843 117.422 275.348 118.78 276.263 120.366C277.204 121.952 277.674 123.875 277.674 126.134C277.674 130.517 276.074 133.958 272.875 136.459C269.702 138.96 265.305 140.21 259.686 140.21Z" fill="#0D0D0D"/>
<path d="M297.011 144.647H377.678V63.98H297.011V144.647Z" fill="#B31F1F"/>
</svg>
