<svg width="96" height="96" viewBox="0 0 96 96" fill="none" xmlns="http://www.w3.org/2000/svg">
<rect width="96" height="96" rx="48" fill="#FF2B2A"/>
<path fill-rule="evenodd" clip-rule="evenodd" d="M60 28H36C31.5817 28 28 31.5817 28 36V67C28 67.5522 28.4477 68 29 68C29.2642 67.9984 29.5167 67.8902 29.7 67.7L35.7 61.7C36.8487 60.5816 38.3971 59.9694 40 60H60C64.4182 60 68 56.4182 68 52V36C68 31.5817 64.4182 28 60 28ZM52 49C52 49.5522 51.5522 50 51 50H37C36.4477 50 36 49.5522 36 49V47C36 46.4478 36.4477 46 37 46H51C51.5522 46 52 46.4478 52 47V49ZM59 42C59.5522 42 60 41.5523 60 41V39C60 38.4477 59.5522 38 59 38H37C36.4477 38 36 38.4477 36 39V41C36 41.5523 36.4477 42 37 42H59Z" fill="white"/>
</svg>
