<svg width="178" height="45" viewBox="0 0 178 45" fill="none" xmlns="http://www.w3.org/2000/svg">
<path d="M80.3637 18.2412V3.48172H86.0625C86.206 3.48172 86.3665 3.48856 86.5442 3.50222C86.7287 3.50906 86.9132 3.52956 87.0977 3.56372C87.8698 3.67988 88.5224 3.94979 89.0554 4.37344C89.5952 4.79026 90.0017 5.31641 90.2751 5.95189C90.5552 6.58737 90.6953 7.29117 90.6953 8.06331C90.6953 9.17711 90.4015 10.144 89.8138 10.964C89.2262 11.7839 88.3857 12.2998 87.2924 12.5117L86.7697 12.6347H81.8704V18.2412H80.3637ZM89.3014 18.2412L86.3905 12.2349L87.8357 11.6814L91.0335 18.2412H89.3014ZM81.8704 11.1997H86.0215C86.1445 11.1997 86.288 11.1929 86.4519 11.1792C86.6159 11.1655 86.7765 11.1416 86.9337 11.1075C87.4393 10.9981 87.8527 10.7897 88.1739 10.4822C88.5019 10.1747 88.7445 9.80917 88.9016 9.38552C89.0656 8.96187 89.1476 8.52113 89.1476 8.06331C89.1476 7.6055 89.0656 7.16476 88.9016 6.74111C88.7445 6.31063 88.5019 5.94164 88.1739 5.63415C87.8527 5.32666 87.4393 5.11825 86.9337 5.00892C86.7765 4.97476 86.6159 4.95426 86.4519 4.94742C86.288 4.93376 86.1445 4.92692 86.0215 4.92692H81.8704V11.1997ZM97.9799 18.5487C96.9003 18.5487 95.9642 18.3095 95.1715 17.8312C94.3857 17.3529 93.7741 16.6798 93.3368 15.812C92.8995 14.9442 92.6808 13.9261 92.6808 12.7577C92.6808 11.5482 92.8961 10.5027 93.3266 9.62126C93.7571 8.73979 94.3618 8.0599 95.1408 7.58158C95.9266 7.10326 96.8525 6.86411 97.9184 6.86411C99.0117 6.86411 99.9444 7.11693 100.717 7.62258C101.489 8.1214 102.073 8.83887 102.469 9.77501C102.866 10.7111 103.047 11.8284 103.012 13.1266H101.475V12.5937C101.448 11.1587 101.137 10.0757 100.542 9.34452C99.9547 8.61338 99.0937 8.24781 97.9594 8.24781C96.7705 8.24781 95.8582 8.63388 95.2228 9.40602C94.5941 10.1782 94.2798 11.2783 94.2798 12.7064C94.2798 14.1004 94.5941 15.1834 95.2228 15.9555C95.8582 16.7208 96.7568 17.1035 97.9184 17.1035C98.7111 17.1035 99.4012 16.9224 99.9888 16.5603C100.583 16.1913 101.051 15.6617 101.393 14.9716L102.797 15.5148C102.36 16.4783 101.714 17.2265 100.86 17.7595C100.013 18.2856 99.0527 18.5487 97.9799 18.5487ZM93.7468 13.1266V11.8659H102.203V13.1266H93.7468ZM109.418 18.5385C108.119 18.5385 107.05 18.2583 106.21 17.698C105.376 17.1377 104.863 16.3587 104.672 15.3611L106.21 15.1048C106.374 15.7335 106.746 16.2357 107.327 16.6115C107.914 16.9805 108.639 17.165 109.5 17.165C110.34 17.165 111.003 16.9908 111.488 16.6423C111.973 16.2869 112.216 15.8052 112.216 15.1971C112.216 14.8554 112.137 14.5787 111.98 14.3668C111.83 14.1482 111.519 13.9466 111.047 13.7621C110.576 13.5776 109.872 13.359 108.936 13.1061C107.932 12.8328 107.146 12.5595 106.579 12.2862C106.011 12.0128 105.608 11.6985 105.369 11.3432C105.13 10.981 105.01 10.5403 105.01 10.021C105.01 9.39235 105.188 8.84229 105.543 8.3708C105.899 7.89249 106.391 7.5235 107.019 7.26384C107.648 6.99735 108.379 6.86411 109.213 6.86411C110.046 6.86411 110.791 7.00077 111.447 7.27409C112.11 7.54058 112.643 7.9164 113.046 8.40155C113.449 8.8867 113.688 9.45043 113.764 10.0927L112.226 10.3695C112.124 9.72034 111.799 9.20786 111.252 8.83204C110.713 8.44938 110.026 8.25122 109.192 8.23756C108.406 8.21706 107.768 8.36739 107.276 8.68854C106.784 9.00287 106.538 9.4231 106.538 9.94925C106.538 10.2431 106.626 10.4959 106.804 10.7077C106.982 10.9127 107.303 11.1075 107.768 11.292C108.239 11.4764 108.909 11.678 109.776 11.8967C110.795 12.1563 111.594 12.4297 112.175 12.7167C112.756 13.0036 113.169 13.3419 113.415 13.7314C113.661 14.1209 113.784 14.6026 113.784 15.1766C113.784 16.222 113.395 17.0454 112.616 17.6467C111.843 18.2412 110.778 18.5385 109.418 18.5385ZM122.084 18.2412C121.462 18.371 120.847 18.4223 120.239 18.395C119.638 18.3676 119.098 18.2378 118.62 18.0055C118.148 17.7731 117.789 17.411 117.543 16.919C117.345 16.509 117.236 16.0956 117.215 15.6788C117.202 15.2551 117.195 14.7734 117.195 14.2336V4.0967H118.691V14.1721C118.691 14.6368 118.695 15.0262 118.702 15.3406C118.715 15.6481 118.787 15.9214 118.917 16.1605C119.163 16.6184 119.552 16.8917 120.085 16.9805C120.625 17.0693 121.291 17.0488 122.084 16.919V18.2412ZM114.827 8.46305V7.1716H122.084V8.46305H114.827ZM128.498 18.518C127.835 18.518 127.254 18.4155 126.756 18.2105C126.264 18.0055 125.843 17.7287 125.495 17.3802C125.153 17.0318 124.877 16.6354 124.665 16.1913C124.453 15.7403 124.299 15.2654 124.203 14.7666C124.108 14.2609 124.06 13.7587 124.06 13.2599V7.1716H125.577V12.8191C125.577 13.4273 125.635 13.991 125.751 14.5103C125.867 15.0297 126.052 15.4841 126.305 15.8735C126.564 16.2562 126.896 16.5534 127.299 16.7653C127.709 16.9771 128.204 17.083 128.785 17.083C129.318 17.083 129.786 16.9908 130.189 16.8063C130.599 16.6218 130.941 16.3587 131.214 16.017C131.494 15.6686 131.706 15.2483 131.85 14.7563C131.993 14.2575 132.065 13.6972 132.065 13.0754L133.131 13.3111C133.131 14.4454 132.933 15.3986 132.536 16.1708C132.14 16.9429 131.593 17.5272 130.896 17.9235C130.2 18.3198 129.4 18.518 128.498 18.518ZM132.219 18.2412V15.5148H132.065V7.1716H133.572V18.2412H132.219ZM136.436 18.2412V7.1716H137.789V9.8365L137.523 9.48802C137.646 9.16003 137.806 8.85937 138.005 8.58605C138.203 8.30589 138.418 8.07698 138.65 7.89932C138.937 7.6465 139.272 7.45517 139.655 7.32534C140.037 7.18868 140.424 7.1101 140.813 7.0896C141.202 7.06227 141.558 7.0896 141.879 7.1716V8.58605C141.476 8.48355 141.035 8.45963 140.557 8.5143C140.078 8.56896 139.638 8.76029 139.235 9.08828C138.866 9.37527 138.589 9.72034 138.404 10.1235C138.22 10.5198 138.097 10.9435 138.035 11.3944C137.974 11.8386 137.943 12.2793 137.943 12.7167V18.2412H136.436ZM146.57 18.5487C145.736 18.5487 145.036 18.3984 144.469 18.0977C143.909 17.7971 143.488 17.3973 143.208 16.8985C142.928 16.3997 142.788 15.8565 142.788 15.2688C142.788 14.6675 142.908 14.155 143.147 13.7314C143.393 13.3009 143.724 12.949 144.141 12.6757C144.565 12.4023 145.053 12.1939 145.607 12.0504C146.167 11.9138 146.785 11.7942 147.462 11.6917C148.145 11.5824 148.811 11.4901 149.461 11.4149C150.116 11.333 150.69 11.2544 151.182 11.1792L150.649 11.5072C150.67 10.4139 150.458 9.60418 150.014 9.07803C149.57 8.55188 148.798 8.28881 147.698 8.28881C146.939 8.28881 146.297 8.45963 145.771 8.80129C145.251 9.14294 144.886 9.68276 144.674 10.4207L143.208 9.99025C143.461 8.99945 143.97 8.23073 144.735 7.68408C145.501 7.13743 146.495 6.86411 147.718 6.86411C148.729 6.86411 149.587 7.05543 150.291 7.43809C151.001 7.81391 151.504 8.36055 151.797 9.07803C151.934 9.39918 152.023 9.75792 152.064 10.1542C152.105 10.5506 152.125 10.9537 152.125 11.3637V18.2412H150.783V15.4636L151.172 15.6276C150.796 16.5774 150.212 17.3017 149.42 17.8005C148.627 18.2993 147.677 18.5487 146.57 18.5487ZM146.744 17.247C147.448 17.247 148.063 17.1206 148.589 16.8678C149.115 16.6149 149.539 16.2699 149.86 15.8325C150.181 15.3884 150.39 14.8896 150.485 14.3361C150.567 13.9808 150.612 13.5913 150.619 13.1676C150.626 12.7372 150.629 12.416 150.629 12.2042L151.203 12.5014C150.69 12.5697 150.134 12.6381 149.532 12.7064C148.938 12.7747 148.35 12.8533 147.769 12.9421C147.195 13.031 146.676 13.1369 146.211 13.2599C145.897 13.3487 145.593 13.4751 145.299 13.6391C145.005 13.7963 144.763 14.0081 144.571 14.2746C144.387 14.5411 144.295 14.8725 144.295 15.2688C144.295 15.59 144.373 15.9009 144.53 16.2015C144.694 16.5022 144.954 16.7516 145.309 16.9498C145.672 17.1479 146.15 17.247 146.744 17.247ZM162.788 18.2412V12.5937C162.788 11.9787 162.73 11.4149 162.614 10.9025C162.498 10.3832 162.31 9.93217 162.05 9.54951C161.798 9.16003 161.466 8.85937 161.056 8.64754C160.653 8.43572 160.161 8.32981 159.58 8.32981C159.047 8.32981 158.576 8.42205 158.166 8.60655C157.763 8.79104 157.421 9.05753 157.141 9.40602C156.868 9.74767 156.659 10.1645 156.516 10.6565C156.372 11.1485 156.3 11.7088 156.3 12.3374L155.234 12.1017C155.234 10.9674 155.433 10.0142 155.829 9.24202C156.225 8.46988 156.772 7.88565 157.469 7.48933C158.166 7.09302 158.965 6.89486 159.867 6.89486C160.53 6.89486 161.107 6.99735 161.599 7.20234C162.098 7.40734 162.518 7.68408 162.86 8.03257C163.209 8.38105 163.489 8.78079 163.701 9.23177C163.912 9.67593 164.066 10.1508 164.162 10.6565C164.258 11.1553 164.305 11.6541 164.305 12.1529V18.2412H162.788ZM154.783 18.2412V7.1716H156.147V9.898H156.3V18.2412H154.783ZM172.992 18.2412C172.37 18.371 171.755 18.4223 171.147 18.395C170.546 18.3676 170.006 18.2378 169.528 18.0055C169.056 17.7731 168.697 17.411 168.451 16.919C168.253 16.509 168.144 16.0956 168.123 15.6788C168.11 15.2551 168.103 14.7734 168.103 14.2336V4.0967H169.599V14.1721C169.599 14.6368 169.603 15.0262 169.61 15.3406C169.623 15.6481 169.695 15.9214 169.825 16.1605C170.071 16.6184 170.46 16.8917 170.993 16.9805C171.533 17.0693 172.199 17.0488 172.992 16.919V18.2412ZM165.735 8.46305V7.1716H172.992V8.46305H165.735ZM85.1092 39.5487C84.2893 39.5487 83.5274 39.4325 82.8236 39.2002C82.1266 38.9611 81.5424 38.5887 81.0709 38.083C80.7019 37.6867 80.4286 37.2459 80.2509 36.7608C80.0733 36.2688 79.9742 35.7495 79.9537 35.2029C79.9468 34.6835 80.022 34.1676 80.1792 33.6552C80.3363 33.1427 80.5823 32.6883 80.9171 32.292C81.1153 32.046 81.3374 31.841 81.5834 31.677C81.8362 31.513 82.0959 31.3729 82.3623 31.2567C81.8499 30.7238 81.457 30.2318 81.1836 29.7808C80.9171 29.323 80.7839 28.7627 80.7839 28.0998C80.7839 27.3414 80.9752 26.6478 81.3579 26.0192C81.7474 25.3905 82.2838 24.9225 82.9671 24.615C83.3156 24.4578 83.6709 24.3485 84.033 24.287C84.402 24.2186 84.7676 24.1845 85.1297 24.1845C85.6832 24.1845 86.2265 24.2631 86.7594 24.4202C87.2924 24.5706 87.7468 24.8097 88.1226 25.1377C88.3755 25.3359 88.5975 25.5716 88.7889 25.8449C88.9802 26.1114 89.1305 26.3916 89.2399 26.6854L87.7844 27.1159C87.6409 26.7469 87.4017 26.436 87.0669 26.1832C86.8073 25.9782 86.5066 25.8347 86.165 25.7527C85.8301 25.6707 85.4919 25.6297 85.1502 25.6297C84.5694 25.6297 84.0433 25.7424 83.5718 25.9679C83.1618 26.1729 82.8543 26.4565 82.6493 26.8186C82.4443 27.1808 82.3418 27.6044 82.3418 28.0896C82.3418 28.5064 82.4102 28.8515 82.5468 29.1248C82.6835 29.3913 82.8817 29.6817 83.1413 29.996C83.2916 30.16 83.4591 30.3274 83.6435 30.4983C83.828 30.6623 84.016 30.8331 84.2073 31.0107L88.8811 35.3463C88.9084 35.155 88.9255 34.9705 88.9324 34.7929C88.9392 34.6084 88.9426 34.4273 88.9426 34.2496L88.9324 32.087H90.3571V34.3521C90.3571 34.8919 90.3366 35.3327 90.2956 35.6743C90.2546 36.016 90.1999 36.2996 90.1316 36.5251L92.038 38.2777L91.0438 39.3335L89.4141 37.796C89.1886 38.0898 88.9016 38.3529 88.5531 38.5852C88.2115 38.8176 87.8698 38.9986 87.5282 39.1285C87.1592 39.2925 86.7697 39.4018 86.3597 39.4565C85.9497 39.518 85.5329 39.5487 85.1092 39.5487ZM85.1297 38.0933C85.5192 38.0933 85.8711 38.0693 86.1855 38.0215C86.4998 37.9737 86.8004 37.8746 87.0874 37.7243C87.4496 37.5329 87.7195 37.3553 87.8971 37.1913C88.0748 37.0205 88.2183 36.8701 88.3276 36.7403L83.5308 32.3535C83.2438 32.4423 82.9739 32.5653 82.7211 32.7224C82.4751 32.8728 82.2633 33.0538 82.0856 33.2657C81.8874 33.5117 81.7405 33.7952 81.6449 34.1164C81.5492 34.4375 81.5014 34.7758 81.5014 35.1311C81.515 35.5069 81.5765 35.8554 81.6859 36.1766C81.802 36.4909 81.9729 36.771 82.1983 37.017C82.5195 37.3929 82.95 37.6662 83.4898 37.837C84.0296 38.0078 84.5763 38.0933 85.1297 38.0933ZM98.0251 39.2412V24.4817H99.5318V37.796H106.543V39.2412H98.0251ZM112.913 39.5487C111.812 39.5487 110.873 39.2993 110.094 38.8005C109.315 38.3017 108.717 37.6115 108.3 36.73C107.883 35.8486 107.675 34.8373 107.675 33.6962C107.675 32.5345 107.887 31.5164 108.31 30.6418C108.734 29.7671 109.335 29.0872 110.114 28.6021C110.9 28.1101 111.833 27.8641 112.913 27.8641C114.019 27.8641 114.962 28.1135 115.741 28.6123C116.527 29.1043 117.125 29.791 117.535 30.6725C117.952 31.5471 118.16 32.555 118.16 33.6962C118.16 34.8578 117.952 35.8793 117.535 36.7608C117.118 37.6354 116.517 38.3187 115.731 38.8107C114.945 39.3027 114.006 39.5487 112.913 39.5487ZM112.913 38.1035C114.142 38.1035 115.058 37.6969 115.659 36.8838C116.261 36.0638 116.561 35.0013 116.561 33.6962C116.561 32.3569 116.257 31.2909 115.649 30.4983C115.048 29.7056 114.136 29.3093 112.913 29.3093C112.086 29.3093 111.402 29.4972 110.863 29.873C110.33 30.242 109.93 30.7579 109.663 31.4207C109.404 32.0767 109.274 32.8352 109.274 33.6962C109.274 35.0286 109.581 36.098 110.196 36.9043C110.811 37.7038 111.717 38.1035 112.913 38.1035ZM124.654 39.518C123.992 39.518 123.411 39.4155 122.912 39.2105C122.42 39.0055 122 38.7287 121.651 38.3802C121.31 38.0318 121.033 37.6354 120.821 37.1913C120.609 36.7403 120.456 36.2654 120.36 35.7666C120.264 35.2609 120.216 34.7587 120.216 34.2599V28.1716H121.733V33.8191C121.733 34.4273 121.791 34.991 121.908 35.5103C122.024 36.0297 122.208 36.4841 122.461 36.8735C122.721 37.2562 123.052 37.5534 123.455 37.7653C123.865 37.9771 124.361 38.083 124.941 38.083C125.474 38.083 125.942 37.9908 126.346 37.8063C126.756 37.6218 127.097 37.3587 127.371 37.017C127.651 36.6686 127.863 36.2483 128.006 35.7563C128.15 35.2575 128.221 34.6972 128.221 34.0754L129.287 34.3111C129.287 35.4454 129.089 36.3986 128.693 37.1708C128.296 37.9429 127.75 38.5272 127.053 38.9235C126.356 39.3198 125.556 39.518 124.654 39.518ZM128.375 39.2412V36.5148H128.221V28.1716H129.728V39.2412H128.375ZM140.588 39.2412V33.5937C140.588 32.9787 140.529 32.4149 140.413 31.9025C140.297 31.3832 140.109 30.9322 139.85 30.5495C139.597 30.16 139.265 29.8594 138.855 29.6475C138.452 29.4357 137.96 29.3298 137.379 29.3298C136.846 29.3298 136.375 29.4221 135.965 29.6065C135.562 29.791 135.22 30.0575 134.94 30.406C134.667 30.7477 134.458 31.1645 134.315 31.6565C134.171 32.1485 134.099 32.7088 134.099 33.3374L133.034 33.1017C133.034 31.9674 133.232 31.0142 133.628 30.242C134.024 29.4699 134.571 28.8857 135.268 28.4893C135.965 28.093 136.764 27.8949 137.666 27.8949C138.329 27.8949 138.907 27.9974 139.399 28.2023C139.897 28.4073 140.318 28.6841 140.659 29.0326C141.008 29.3811 141.288 29.7808 141.5 30.2318C141.712 30.6759 141.865 31.1508 141.961 31.6565C142.057 32.1553 142.104 32.6541 142.104 33.1529V39.2412H140.588ZM132.583 39.2412V28.1716H133.946V30.898H134.099V39.2412H132.583ZM149.161 44.4685C148.594 44.4685 148.034 44.3831 147.48 44.2123C146.934 44.0483 146.428 43.7852 145.963 43.4231C145.499 43.0677 145.109 42.6031 144.795 42.0291L146.158 41.2706C146.466 41.8856 146.896 42.3264 147.45 42.5928C148.01 42.8662 148.581 43.0028 149.161 43.0028C149.961 43.0028 150.607 42.8525 151.099 42.5518C151.597 42.258 151.959 41.8207 152.185 41.2399C152.41 40.6591 152.52 39.9348 152.513 39.067V36.1151H152.687V28.1716H154.03V39.0875C154.03 39.4018 154.02 39.7024 153.999 39.9894C153.986 40.2833 153.955 40.5702 153.907 40.8504C153.777 41.6772 153.507 42.3571 153.097 42.8901C152.694 43.4231 152.161 43.8194 151.498 44.079C150.842 44.3387 150.063 44.4685 149.161 44.4685ZM149.059 39.5487C148.027 39.5487 147.146 39.2925 146.414 38.78C145.683 38.2607 145.123 37.5603 144.734 36.6788C144.344 35.7973 144.149 34.8031 144.149 33.6962C144.149 32.596 144.341 31.6052 144.723 30.7238C145.113 29.8423 145.67 29.1453 146.394 28.6328C147.118 28.1203 147.986 27.8641 148.997 27.8641C150.036 27.8641 150.911 28.1169 151.621 28.6226C152.332 29.1282 152.868 29.8218 153.23 30.7033C153.599 31.5779 153.784 32.5755 153.784 33.6962C153.784 34.7963 153.603 35.7905 153.241 36.6788C152.879 37.5603 152.346 38.2607 151.642 38.78C150.938 39.2925 150.077 39.5487 149.059 39.5487ZM149.213 38.1445C149.998 38.1445 150.648 37.9532 151.16 37.5705C151.673 37.1879 152.055 36.6617 152.308 35.9921C152.561 35.3156 152.687 34.5503 152.687 33.6962C152.687 32.8284 152.561 32.063 152.308 31.4002C152.055 30.7306 151.673 30.2079 151.16 29.832C150.654 29.4562 150.015 29.2683 149.243 29.2683C148.451 29.2683 147.795 29.4631 147.275 29.8525C146.756 30.242 146.37 30.7716 146.117 31.4412C145.871 32.1109 145.748 32.8625 145.748 33.6962C145.748 34.5366 145.875 35.2951 146.127 35.9716C146.387 36.6412 146.773 37.1708 147.286 37.5603C147.798 37.9498 148.44 38.1445 149.213 38.1445ZM161.58 39.5487C160.5 39.5487 159.564 39.3095 158.771 38.8312C157.986 38.3529 157.374 37.6798 156.937 36.812C156.499 35.9442 156.281 34.9261 156.281 33.7577C156.281 32.5482 156.496 31.5027 156.926 30.6213C157.357 29.7398 157.962 29.0599 158.741 28.5816C159.526 28.1033 160.452 27.8641 161.518 27.8641C162.612 27.8641 163.544 28.1169 164.316 28.6226C165.089 29.1214 165.673 29.8389 166.069 30.775C166.465 31.7111 166.646 32.8284 166.612 34.1266H165.075V33.5937C165.048 32.1587 164.737 31.0757 164.142 30.3445C163.555 29.6134 162.694 29.2478 161.559 29.2478C160.37 29.2478 159.458 29.6339 158.823 30.406C158.194 31.1782 157.88 32.2783 157.88 33.7064C157.88 35.1004 158.194 36.1834 158.823 36.9555C159.458 37.7208 160.357 38.1035 161.518 38.1035C162.311 38.1035 163.001 37.9224 163.589 37.5603C164.183 37.1913 164.651 36.6617 164.993 35.9716L166.397 36.5148C165.96 37.4783 165.314 38.2265 164.46 38.7595C163.613 39.2856 162.653 39.5487 161.58 39.5487ZM157.347 34.1266V32.8659H165.803V34.1266H157.347Z" fill="white"/>
<path d="M36.0466 41.6861C33.0068 41.6861 30.3177 41.0059 27.9794 39.6454C25.6411 38.246 23.7899 36.3801 22.4259 34.0478C21.0619 31.6766 20.3799 29.0334 20.3799 26.118C20.3799 23.2026 21.0619 20.5787 22.4259 18.2464C23.7899 15.8752 25.6411 14.0094 27.9794 12.6489C30.3177 11.2495 33.0068 10.5498 36.0466 10.5498C39.0864 10.5498 41.7755 11.2495 44.1138 12.6489C46.4911 14.0094 48.3423 15.8558 49.6673 18.1881C51.0314 20.5204 51.7134 23.1637 51.7134 26.118C51.7134 29.0334 51.0314 31.6766 49.6673 34.0478C48.3423 36.3801 46.4911 38.246 44.1138 39.6454C41.7755 41.0059 39.0864 41.6861 36.0466 41.6861ZM36.0466 37.0798C38.1121 37.0798 39.9049 36.5939 41.4248 35.6221C42.9447 34.6503 44.1333 33.3481 44.9907 31.7155C45.8481 30.044 46.2768 28.1782 46.2768 26.118C46.2768 24.0578 45.8481 22.2114 44.9907 20.5787C44.1333 18.9072 42.9447 17.5856 41.4248 16.6138C39.9049 15.642 38.1121 15.1561 36.0466 15.1561C34.0201 15.1561 32.2274 15.642 30.6685 16.6138C29.1486 17.5856 27.9599 18.9072 27.1026 20.5787C26.2452 22.2114 25.8165 24.0578 25.8165 26.118C25.8165 28.1782 26.2452 30.044 27.1026 31.7155C27.9599 33.3481 29.1486 34.6503 30.6685 35.6221C32.2274 36.5939 34.0201 37.0798 36.0466 37.0798Z" fill="#FF3737"/>
<path d="M61.1483 41.2256C58.3086 41.2256 55.7717 40.6778 53.5378 39.5824C51.3417 38.4492 49.6 36.9005 48.3127 34.9363C47.0632 32.9343 46.4385 30.6113 46.4385 27.9672C46.4385 25.5119 46.9118 23.1511 47.8583 20.8847C48.8428 18.6183 50.1869 16.2386 51.8908 13.7456L60.5235 0.827148H66.8278L56.1504 16.9185C57.0212 16.2386 57.9678 15.7476 58.9901 15.4454C60.0503 15.1054 61.1294 14.9354 62.2274 14.9354C65.0293 14.9354 67.4525 15.5398 69.4971 16.7485C71.5417 17.9195 73.0941 19.4871 74.1543 21.4513C75.2523 23.4155 75.8013 25.5875 75.8013 27.9672C75.8013 30.6113 75.1576 32.9343 73.8703 34.9363C72.6208 36.9005 70.898 38.4492 68.702 39.5824C66.5059 40.6778 63.988 41.2256 61.1483 41.2256ZM61.1483 36.4095C62.9279 36.4095 64.5181 36.0695 65.919 35.3896C67.32 34.7097 68.3991 33.7276 69.1563 32.4433C69.9515 31.159 70.349 29.6481 70.349 27.9105C70.349 26.4751 70.0083 25.1153 69.3267 23.831C68.6831 22.5467 67.6797 21.5268 66.3166 20.7714C64.9535 19.9781 63.2686 19.5815 61.2619 19.5815C59.4823 19.5815 57.8731 19.9404 56.4343 20.6581C55.0334 21.338 53.9164 22.3201 53.0834 23.6044C52.2505 24.8509 51.834 26.3052 51.834 27.9672C51.834 29.7047 52.2315 31.2157 53.0267 32.5C53.8596 33.7465 54.9766 34.7097 56.3775 35.3896C57.7785 36.0695 59.3687 36.4095 61.1483 36.4095Z" fill="white"/>
<path d="M25.1738 0.121094V4.2832L25.1367 4.31836L13.6016 15.3564C15.514 15.3635 17.2513 15.7282 18.8115 16.4551C20.9493 17.4512 22.6192 18.9746 23.8193 21.0225C25.0387 23.053 25.6464 25.4378 25.6465 28.1719C25.6465 30.7569 25.0861 33.0478 23.9609 35.04L23.96 35.0391C22.8544 37.011 21.327 38.5615 19.3779 39.6885L19.377 39.6895C17.4267 40.7983 15.2157 41.3515 12.7471 41.3516C10.7464 41.3516 8.90156 40.995 7.21484 40.2812C5.52925 39.5679 4.07659 38.554 2.8584 37.2393L2.85742 37.2383C1.63816 35.9035 0.748217 34.3155 0.186523 32.4766L0.151367 32.3604L0.266602 32.3262L4.16504 31.1543L4.27637 31.1201L4.31348 31.2314C4.97445 33.2002 6.05517 34.6833 7.55176 35.6895L7.83887 35.8721C9.2855 36.7566 10.9009 37.1828 12.6885 37.1484C14.4536 37.1116 15.9641 36.7149 17.2236 35.9648L17.46 35.8203C18.6238 35.0821 19.5221 34.087 20.1562 32.833C20.8331 31.4947 21.1738 29.942 21.1738 28.1719C21.1738 25.4626 20.3838 23.2998 18.8135 21.6709L18.8125 21.6699C17.2607 20.0232 15.2057 19.1963 12.6357 19.1963C11.9233 19.1963 11.1724 19.2976 10.3828 19.5H10.3799C9.59095 19.6839 8.858 19.9503 8.18066 20.2988L8.08203 20.3496L8.02344 20.2559L5.96289 16.9912L5.90918 16.9072L5.9834 16.8389L19.5391 4.2959H1.76855V0.121094H25.1738Z" fill="white" stroke="white" stroke-width="0.241156"/>
</svg>
