<svg width="58" height="58" viewBox="0 0 58 58" fill="none" xmlns="http://www.w3.org/2000/svg">
<g clip-path="url(#clip0_1_3857)">
<g clip-path="url(#clip1_1_3857)">
<path d="M1.00195 40.4705H11.2422V41.6956M11.2422 41.6956L15.9171 37.6862H31.0548C35.1731 38.1317 33.1696 41.6956 31.0548 41.6956H23.3746C21.2375 43.0321 22.4842 44.5541 23.3746 45.1482H35.6183L44.4078 38.937C45.7148 38.0134 47.2797 37.3411 48.8711 37.5111C50.2217 37.6555 51.1334 38.2863 49.5763 40.5987C49.0684 41.3531 48.4096 41.9977 47.7272 42.5989L42.3096 47.3716C39.7918 49.5896 37.5169 53.0905 34.1713 52.8329H11.2422M11.2422 41.6956V52.8329M1.00195 56.5082H11.2422V52.8329M5.34291 30.8924H1.55849C1.55849 34.0999 4.08144 37.1293 5.34291 37.6862H28.4947L52.3143 37.4634C55.8761 36.9714 56.1358 32.5807 55.9874 30.8924H52.4256M52.4256 30.8924C51.2312 11.9419 36.864 7.15352 28.9399 7.04646C28.5931 7.04177 28.2587 7.04605 27.9381 7.0585C10.5743 7.94949 5.63973 23.319 5.34291 30.8924M5.34291 30.8924H52.4256M28.9399 7.04646V2.49219H26.3799H31.3886M28.9399 10.9565C26.7138 10.4739 20.9927 10.8229 15.9171 16.0797M14.3587 17.4162C13.9877 17.7132 13.0453 18.6636 12.2439 20.0892M5.34291 48.7122C2.67155 48.7122 2.11501 52.8329 5.34291 52.8329C8.57081 52.8329 8.34819 48.7122 5.34291 48.7122Z" stroke="#FF3737" stroke-width="0.983051"/>
</g>
</g>
<defs>
<clipPath id="clip0_1_3857">
<rect width="57.02" height="58" fill="white"/>
</clipPath>
<clipPath id="clip1_1_3857">
<rect width="57.02" height="58" fill="white"/>
</clipPath>
</defs>
</svg>
