<svg width="247" height="459" viewBox="0 0 247 459" fill="none" xmlns="http://www.w3.org/2000/svg">
<g opacity="0.1">
<path d="M-5.71909 218.178C-5.71909 199.778 -1.60157 183.501 6.6335 169.348C15.1038 155.194 26.3976 143.989 40.5149 135.733C54.8674 127.477 70.867 123.349 88.5135 123.349C106.16 123.349 122.042 127.477 136.159 135.733C150.512 143.989 161.806 155.194 170.041 169.348C178.511 183.501 182.746 199.778 182.746 218.178C182.746 236.577 178.511 252.854 170.041 267.007C161.806 281.397 150.629 292.602 136.512 300.622C122.395 308.879 106.395 313.007 88.5135 313.007C70.867 313.007 54.8674 308.879 40.5149 300.622C26.3976 292.602 15.1038 281.397 6.63349 267.007C-1.60157 252.854 -5.71909 236.577 -5.71909 218.178ZM22.1625 218.178C22.1625 230.68 25.1035 241.531 30.9857 250.731C36.8679 259.931 44.7501 267.125 54.6321 272.315C64.7495 277.505 76.0433 280.1 88.5135 280.1C100.984 280.1 112.16 277.505 122.042 272.315C132.159 267.125 140.159 259.931 146.041 250.731C151.923 241.531 154.865 230.68 154.865 218.178C154.865 205.911 151.923 195.06 146.041 185.624C140.159 176.425 132.159 169.23 122.042 164.04C112.16 158.851 100.984 156.256 88.5135 156.256C76.0433 156.256 64.7495 158.851 54.6321 164.04C44.7501 169.23 36.8679 176.425 30.9857 185.624C25.1035 195.06 22.1625 205.911 22.1625 218.178Z" fill="#FF3737"/>
<path d="M-2.92994 370.143C-2.92993 352.955 0.385297 337.6 7.01578 324.078C13.8749 310.785 23.249 300.243 35.1382 292.451C47.256 284.888 61.3172 281.106 77.3218 281.106C92.1832 281.106 106.473 283.971 120.191 289.701C133.909 295.659 148.314 303.795 163.404 314.108L241.598 366.362L241.598 404.52L144.198 339.891C148.314 345.162 151.286 350.892 153.115 357.08C155.173 363.497 156.202 370.029 156.202 376.675C156.202 393.634 152.543 408.302 145.227 420.678C138.139 433.053 128.651 442.45 116.762 448.867C104.873 455.513 91.7259 458.836 77.3218 458.836C61.3171 458.836 47.2559 454.94 35.1382 447.148C23.249 439.585 13.8749 429.157 7.01577 415.865C0.385294 402.572 -2.92994 387.332 -2.92994 370.143ZM26.2213 370.143C26.2213 380.915 28.2791 390.54 32.3945 399.02C36.51 407.5 42.4546 414.031 50.2282 418.615C58.0019 423.428 67.1474 425.834 77.6647 425.834C86.3529 425.834 94.5839 423.772 102.358 419.646C110.131 415.75 116.304 409.677 120.877 401.426C125.679 393.176 128.079 382.977 128.079 370.831C128.079 360.059 125.907 350.319 121.563 341.61C117.448 333.131 111.503 326.37 103.729 321.328C96.1843 316.286 87.3818 313.765 77.3218 313.765C66.8044 313.765 57.6589 316.171 49.8853 320.984C42.3402 326.026 36.51 332.787 32.3945 341.266C28.2791 349.746 26.2213 359.372 26.2213 370.143Z" fill="#E2E2E9"/>
<path d="M245.874 152.37L220.681 152.37L220.465 152.145L153.657 82.3359C153.613 93.9084 151.402 104.421 147.003 113.862C140.973 126.803 131.753 136.912 119.356 144.177L118.197 144.857C106.161 151.783 92.1139 155.234 76.081 155.234C60.4341 155.234 46.5704 151.84 34.5117 145.029C22.5762 138.337 13.1924 129.088 6.37109 117.29L6.36914 117.285C-0.342855 105.48 -3.69141 92.0963 -3.69141 77.1533C-3.6914 65.0438 -1.53602 53.8794 2.78418 43.6699C7.10218 33.4657 13.2421 24.6731 21.2012 17.2988L21.2051 17.2949C29.2846 9.91451 38.8962 4.52593 50.0273 1.12597L50.7285 0.912101L50.9395 1.61425L58.0332 25.207L58.2363 25.8838L57.5664 26.1094C45.6493 30.11 36.6714 36.6485 30.5811 45.707L30.0176 46.5723C24.2933 55.5504 21.5357 65.6195 21.751 76.8008L21.7783 77.7978C22.126 88.0545 24.5127 96.8631 28.9111 104.249L28.9131 104.253C33.4578 111.995 39.7714 117.909 47.8672 122.003C55.9683 126.1 65.3665 128.16 76.081 128.16C92.4819 128.16 105.574 123.378 115.434 113.871L115.439 113.865C125.407 104.472 130.411 92.0357 130.411 76.4795C130.411 72.1668 129.802 67.6215 128.576 62.8418L128.572 62.8262C127.459 58.0501 125.847 53.613 123.736 49.5127L123.43 48.918L123.995 48.5615L143.756 36.0908L144.27 35.7676L144.682 36.2129L220.601 118.265L220.601 10.7002L245.874 10.7002L245.874 152.37Z" fill="#E2E2E9" stroke="#E2E2E9" stroke-width="1.45969"/>
</g>
</svg>
