<svg width="58" height="58" viewBox="0 0 58 58" fill="none" xmlns="http://www.w3.org/2000/svg">
<g clip-path="url(#clip0_1_3867)">
<g clip-path="url(#clip1_1_3867)">
<g clip-path="url(#clip2_1_3867)">
<path d="M4.95271 12.0199C5.57242 10.2628 12.6448 7.14682 35.9768 8.73995M19.4806 15.9092C13.7864 15.4773 9.01274 14.513 6.57956 13.5511C5.20495 13.0077 4.57733 12.4652 4.95271 12.0199M4.95271 12.0199C4.95271 12.9009 5.18957 14.1415 5.34551 15.0852M6.57956 13.5511C6.12719 11.8693 11.3422 8.85708 35.8212 10.2628M21.685 25.7255C18.4315 26.1005 15.8364 25.8817 14.9456 25.7255C11.9415 25.8312 6.5352 24.3926 5.443 15.7324C5.41905 15.5426 5.38486 15.3234 5.34551 15.0852M5.34551 15.0852C10.2514 17.5252 25.0822 20.9413 45.1588 15.0852M45.04 13.0743C42.7883 13.9499 40.354 14.6077 37.836 15.0852M45.04 13.0743L50.6175 7.76498M45.04 13.0743V5.23485M45.04 13.0743L39.3835 7.76498M45.04 13.0743H37.3956M45.04 13.0743L50.6175 18.7603M45.04 13.0743H52.9793M45.04 13.0743C45.0596 13.7751 45.3315 15.2415 45.2199 16.1199C45.0091 17.7794 44.2195 19.0032 43.3227 20.6885M45.04 13.0743L45.1588 15.0852M19.4806 15.9092C20.491 15.9859 21.5303 16.0457 22.5909 16.0858C26.7343 16.2425 31.1991 16.0976 35.5122 15.4727C36.2927 15.3596 37.0682 15.2308 37.836 15.0852M45.04 5.23485C43.9145 5.238 42.7366 5.521 41.5543 6.16282C40.6656 6.64523 39.9519 7.18824 39.3835 7.76498C37.7015 9.47194 37.2935 11.4742 37.3956 13.0743C37.4467 13.8742 37.6253 14.5735 37.836 15.0852M45.5049 20.9463C47.7832 20.9454 49.4452 20.0146 50.6175 18.7603C52.0244 17.2551 52.7261 15.2839 52.9414 13.8942C52.9733 13.6238 52.9856 13.3499 52.9793 13.0743C52.9365 11.2049 52.039 9.25332 50.6175 7.76498C49.1802 6.2601 47.2071 5.22879 45.04 5.23485M14.9456 25.7255C14.5736 32.7761 19.2879 35.0441 23.131 35.4484C24.0896 35.5493 24.994 35.5341 25.7518 35.4484C26.2396 35.4041 26.7041 35.3457 27.1461 35.2742C35.1245 33.9847 35.7813 28.4634 35.0474 25.7255C38.2484 25.6894 40.4856 24.4127 42.0191 22.6188C42.528 22.0235 42.9594 21.3712 43.3227 20.6885M43.3227 20.6885C44.106 20.8658 44.8323 20.9466 45.5049 20.9463M45.1588 15.0852L45.5049 20.9463M23.131 35.4484V52.3186L19.4806 53.3061C18.4562 53.6971 14.9221 55.0287 17.1945 55.8435C19.7121 56.4292 27.5336 57.2562 33.4417 55.2812C33.9848 55.019 34.0296 54.0687 31.4723 53.3061L27.1461 52.3186V35.2742M35.5122 15.4727C35.284 14.0862 35.2805 12.1672 35.8212 10.2628C36.7497 6.99289 40.5554 3.41735 45.04 3.35141C51.1224 3.26196 57.5072 9.98345 54.1033 17.4084C51.9488 22.1085 47.3444 23.8431 42.0191 22.6188M22.5909 16.0858L19.4806 15.9092M19.4806 15.9092L2.95117 0.491211" stroke="#FF3737" stroke-width="0.983051"/>
</g>
</g>
</g>
<defs>
<clipPath id="clip0_1_3867">
<rect width="57.02" height="58" fill="white"/>
</clipPath>
<clipPath id="clip1_1_3867">
<rect width="57.02" height="58" fill="white"/>
</clipPath>
<clipPath id="clip2_1_3867">
<rect width="57.0169" height="58" fill="white" transform="translate(0.00195312)"/>
</clipPath>
</defs>
</svg>
