<svg width="35" height="35" viewBox="0 0 35 35" fill="none" xmlns="http://www.w3.org/2000/svg">
<rect x="0.5" y="0.5" width="34" height="34" rx="17" stroke="white" stroke-opacity="0.1"/>
<g clip-path="url(#clip0_1_4206)">
<g clip-path="url(#clip1_1_4206)">
<g clip-path="url(#clip2_1_4206)">
<path d="M14.7189 23.5942C20.3778 23.5942 23.4739 18.9046 23.4739 14.8391C23.4739 14.7073 23.471 14.5725 23.4651 14.4407C24.0674 14.0051 24.5872 13.4656 25 12.8475C24.4391 13.0971 23.8435 13.2601 23.2337 13.3309C23.8758 12.946 24.3566 12.3414 24.5869 11.6291C23.9828 11.9871 23.3222 12.2396 22.6334 12.3758C22.1693 11.8827 21.5556 11.5562 20.8873 11.4467C20.219 11.3373 19.5332 11.4511 18.9361 11.7705C18.3389 12.0899 17.8636 12.5971 17.5837 13.2138C17.3037 13.8304 17.2346 14.5221 17.3872 15.1819C16.1641 15.1205 14.9675 14.8028 13.875 14.2493C12.7825 13.6958 11.8186 12.9189 11.0456 11.9689C10.6527 12.6462 10.5325 13.4477 10.7094 14.2105C10.8863 14.9733 11.3469 15.6401 11.9978 16.0755C11.5091 16.0599 11.0312 15.9284 10.6035 15.6917V15.7297C10.6031 16.4406 10.8488 17.1296 11.2989 17.6797C11.7491 18.2298 12.3758 18.6071 13.0727 18.7473C12.62 18.8712 12.145 18.8892 11.6843 18.8001C11.8809 19.4114 12.2635 19.946 12.7786 20.3294C13.2937 20.7128 13.9157 20.9258 14.5577 20.9387C13.4678 21.7949 12.1214 22.2592 10.7354 22.257C10.4896 22.2567 10.244 22.2416 10 22.2119C11.408 23.1153 13.046 23.595 14.7189 23.5942Z" fill="white"/>
</g>
</g>
</g>
<defs>
<clipPath id="clip0_1_4206">
<rect width="15" height="13" fill="white" transform="translate(10 11)"/>
</clipPath>
<clipPath id="clip1_1_4206">
<rect width="15" height="13" fill="white" transform="translate(10 11)"/>
</clipPath>
<clipPath id="clip2_1_4206">
<rect width="15" height="13" fill="white" transform="translate(10 11)"/>
</clipPath>
</defs>
</svg>
