<svg width="704" height="1320" viewBox="0 0 704 1320" fill="none" xmlns="http://www.w3.org/2000/svg">
<path d="M268.105 1474.7C311.206 1457.31 360.469 1458.73 406.745 1460.21C457.779 1461.81 509.811 1464.37 559.424 1452.72C602.512 1442.55 642.902 1420.8 670.109 1384.95C696.679 1349.93 710.502 1305.89 699.979 1260.26C687.15 1204.72 641.541 1165.88 599.457 1132.23C554.379 1096.28 509.353 1060.41 464.276 1024.46C373.513 952.071 282.751 879.683 191.988 807.295C159.794 781.593 122.414 753.063 102.211 720.401C92.7206 705.139 88.1519 694.394 88.3094 678.826C88.4771 666.796 96.6672 652.197 108.639 644.42C144.773 621.081 194.062 626.274 236.508 627.101C284.149 628.034 331.952 626.513 375.248 606.531C412.648 589.323 445.113 557.208 456.093 515.613C468.992 467.014 447.953 418.996 417.191 380.545C384.921 340.235 341.747 308.985 302.667 276.107C258.887 239.294 215.157 202.571 171.376 165.759C130.183 131.133 87.6599 97.5024 49.1561 59.5694C16.8441 27.7918 -15.2801 -8.93764 -30.0152 -52.7546C-57.5111 -134.19 -14.1388 -203.723 35.6477 -260.257C48.8636 -275.243 62.6885 -289.749 76.6657 -303.988C102.989 -330.826 60.1489 -374.792 33.7419 -347.906C-21.5107 -291.562 -82.1693 -226.106 -95.0859 -142.522C-102.621 -93.9129 -93.6752 -45.3741 -70.739 -0.683762C-47.2766 45.1241 -11.1478 84.1764 26.1985 118.516C66.0656 155.317 108.522 189.222 149.952 224.067C193.733 260.879 237.463 297.602 281.243 334.415C316.839 364.318 359.133 394.417 384.348 433.907C395.109 450.807 401.888 467.38 400.663 487.339C399.808 500.706 392.344 515.6 383.028 525.879C358.646 552.791 323.404 563.804 284.442 565.952C235.327 568.695 185.273 561.576 136.662 569.703C90.3954 577.437 45.1426 603.38 32.3115 652.294C21.0316 695.124 41.026 737.594 67.3558 771.604C95.7344 808.226 133.481 835.248 169.14 863.697C214.217 899.651 259.244 935.516 304.321 971.471C394.053 1043.03 484.642 1113.74 573.618 1186.33C592.86 1202.05 613.472 1219 627.534 1239.92C640.054 1258.54 645.791 1276.41 644.296 1296.29C643.922 1301.11 641.874 1310.43 639.314 1317.68C640.318 1314.75 638.511 1319.8 638.427 1319.84C637.572 1321.87 636.633 1323.94 635.644 1325.92C633.128 1330.9 630.426 1335.75 627.352 1340.34C619.643 1352.07 604.435 1366.3 592.698 1373.71C554.592 1397.7 507.115 1401.16 462.563 1400.94C411.904 1400.79 361.267 1396.36 310.98 1402.14C285.314 1405.09 261.243 1411.62 237.502 1421.27C222.877 1427.13 220.023 1449.32 227.5 1462.42C236.689 1478.33 253.395 1480.61 268.105 1474.7Z" fill="#EAB006"/>
</svg>
