<svg width="35" height="35" viewBox="0 0 35 35" fill="none" xmlns="http://www.w3.org/2000/svg">
<rect x="0.5" y="0.5" width="34" height="34" rx="17" stroke="white" stroke-opacity="0.1"/>
<g clip-path="url(#clip0_1_4216)">
<g clip-path="url(#clip1_1_4216)">
<g clip-path="url(#clip2_1_4216)">
<path d="M25.8307 14.0893C25.8307 14.0893 25.6646 12.9129 25.1533 12.3964C24.5059 11.7166 23.782 11.7133 23.45 11.6733C21.0727 11.5 17.5033 11.5 17.5033 11.5H17.4967C17.4967 11.5 13.9273 11.5 11.55 11.6733C11.218 11.7133 10.4941 11.7166 9.84668 12.3964C9.33535 12.9129 9.17266 14.0893 9.17266 14.0893C9.17266 14.0893 9 15.4722 9 16.8519V18.1448C9 19.5244 9.16934 20.9074 9.16934 20.9074C9.16934 20.9074 9.33535 22.0837 9.84336 22.6003C10.4908 23.2801 11.3408 23.2567 11.7193 23.33C13.0807 23.46 17.5 23.5 17.5 23.5C17.5 23.5 21.0727 23.4933 23.45 23.3234C23.782 23.2834 24.5059 23.2801 25.1533 22.6003C25.6646 22.0837 25.8307 20.9074 25.8307 20.9074C25.8307 20.9074 26 19.5278 26 18.1448V16.8519C26 15.4722 25.8307 14.0893 25.8307 14.0893ZM15.7436 19.7144V14.919L20.3355 17.325L15.7436 19.7144Z" fill="white"/>
</g>
</g>
</g>
<defs>
<clipPath id="clip0_1_4216">
<rect width="17" height="13" fill="white" transform="translate(9 11)"/>
</clipPath>
<clipPath id="clip1_1_4216">
<rect width="17" height="13" fill="white" transform="translate(9 11)"/>
</clipPath>
<clipPath id="clip2_1_4216">
<rect width="17" height="13" fill="white" transform="translate(9 11)"/>
</clipPath>
</defs>
</svg>
